<svg width="18" height="24" viewBox="0 0 18 24" fill="none" xmlns="http://www.w3.org/2000/svg">
<g id="Group">
<path id="Vector" d="M3 19.1087V9.52174C3 7.82666 3.63214 6.201 4.75736 5.0024C5.88258 3.8038 7.4087 3.13043 9 3.13043C10.5913 3.13043 12.1174 3.8038 13.2426 5.0024C14.3679 6.201 15 7.82666 15 9.52174V19.1087M3 19.1087H15M3 19.1087H1M15 19.1087H17M8 22.3043H10" stroke="black" stroke-width="2" stroke-linecap="round" stroke-linejoin="round"/>
<path id="Vector_2" d="M9 3.13043C9.55228 3.13043 10 2.65352 10 2.06522C10 1.47691 9.55228 1 9 1C8.44772 1 8 1.47691 8 2.06522C8 2.65352 8.44772 3.13043 9 3.13043Z" stroke="black" stroke-width="2"/>
</g>
</svg>
