<svg width="25" height="24" viewBox="0 0 25 24" fill="none" xmlns="http://www.w3.org/2000/svg">
<path id="Vector" d="M1 3.44444C1 2.79614 1.24232 2.17438 1.67365 1.71596C2.10499 1.25754 2.69 1 3.3 1H10.2V23H3.3C2.69 23 2.10499 22.7425 1.67365 22.284C1.24232 21.8256 1 21.2039 1 20.5556V3.44444ZM14.8 1H21.7C22.31 1 22.895 1.25754 23.3263 1.71596C23.7577 2.17438 24 2.79614 24 3.44444V9.55556H14.8V1ZM14.8 14.4444H24V20.5556C24 21.2039 23.7577 21.8256 23.3263 22.284C22.895 22.7425 22.31 23 21.7 23H14.8V14.4444Z" stroke="#6B6363" stroke-width="2" stroke-linecap="round" stroke-linejoin="round"/>
</svg>
