<svg width="23" height="23" viewBox="0 0 23 23" fill="none" xmlns="http://www.w3.org/2000/svg">
<g id="Group">
<path id="Vector" d="M11.5014 0C10.3053 0 9.13615 0.309129 8.14169 0.888296C7.14722 1.46746 6.37213 2.29065 5.91442 3.25377C5.45672 4.21689 5.33697 5.27668 5.5703 6.29912C5.80364 7.32156 6.37958 8.26074 7.22531 8.99788C8.07103 9.73501 9.14855 10.237 10.3216 10.4404C11.4947 10.6438 12.7106 10.5394 13.8156 10.1404C14.9205 9.74151 15.865 9.06594 16.5295 8.19915C17.194 7.33237 17.5486 6.31331 17.5486 5.27083C17.5467 3.87343 16.909 2.53373 15.7753 1.54561C14.6417 0.557496 13.1046 0.00164856 11.5014 0ZM14.089 5.6096L11.89 7.52627C11.7869 7.6161 11.6471 7.66656 11.5014 7.66656C11.3556 7.66656 11.2158 7.6161 11.1127 7.52627L8.91369 5.6096C8.81062 5.51975 8.75273 5.39789 8.75273 5.27083C8.75273 5.14377 8.81062 5.02192 8.91369 4.93206L11.1127 3.0154C11.2158 2.92557 11.3556 2.8751 11.5014 2.8751C11.6471 2.8751 11.7869 2.92557 11.89 3.0154L14.089 4.93206C14.1921 5.02192 14.25 5.14377 14.25 5.27083C14.25 5.39789 14.1921 5.51975 14.089 5.6096Z" fill="#6B6363"/>
<path id="Vector_2" d="M5.71973 18.2083L6.55975 22.5994C6.58109 22.7113 6.64727 22.8129 6.74653 22.8863C6.84578 22.9596 6.97167 22.9999 7.1018 23H15.8978C16.0279 22.9999 16.1538 22.9596 16.2531 22.8863C16.3523 22.8129 16.4185 22.7113 16.4399 22.5994L17.2799 18.2083H5.71973Z" fill="#6B6363"/>
<path id="Vector_3" d="M22.8139 11.6193C21.9624 10.9642 20.9439 10.4957 19.8429 10.2527C18.742 10.0097 17.5903 9.99932 16.4838 10.2223C15.3773 10.4454 14.3479 10.8954 13.481 11.535C12.6142 12.1745 11.935 12.9852 11.5 13.8996C11.065 12.9852 10.3858 12.1745 9.51897 11.535C8.65215 10.8954 7.62269 10.4454 6.51617 10.2223C5.40966 9.99932 4.25805 10.0097 3.15707 10.2527C2.0561 10.4957 1.03756 10.9642 0.186125 11.6193C0.127628 11.6642 0.0807778 11.7195 0.0486872 11.7815C0.0165966 11.8434 0 11.9107 0 11.9786C0 12.0466 0.0165966 12.1138 0.0486872 12.1758C0.0807778 12.2377 0.127628 12.293 0.186125 12.338C1.4232 13.2916 3.00215 13.8406 4.65256 13.891C6.30298 13.9414 7.92216 13.4902 9.23283 12.6145C10.3349 13.5973 10.9514 14.9173 10.9502 16.2916H6.00249C5.92269 16.2916 5.84385 16.3068 5.77146 16.3361C5.69906 16.3653 5.63484 16.408 5.58326 16.4611C5.53168 16.5141 5.49398 16.5764 5.47277 16.6434C5.45156 16.7105 5.44735 16.7808 5.46043 16.8494L5.53685 17.2499H17.4631L17.5396 16.8494C17.5527 16.7808 17.5484 16.7105 17.5272 16.6434C17.506 16.5764 17.4683 16.5141 17.4167 16.4611C17.3652 16.408 17.3009 16.3653 17.2285 16.3361C17.1561 16.3068 17.0773 16.2916 16.9975 16.2916H12.0497C12.0489 14.9177 12.6654 13.5981 13.7672 12.6154C15.0778 13.4911 16.697 13.9424 18.3474 13.892C19.9978 13.8415 21.5768 13.2925 22.8139 12.339C22.8724 12.294 22.9192 12.2387 22.9513 12.1767C22.9834 12.1148 23 12.0476 23 11.9796C23 11.9116 22.9834 11.8444 22.9513 11.7824C22.9192 11.7205 22.8724 11.6652 22.8139 11.6202V11.6193Z" fill="#6B6363"/>
</g>
</svg>
