<svg width="24" height="24" viewBox="0 0 24 24" fill="none" xmlns="http://www.w3.org/2000/svg">
<g id="Group">
<path id="Vector" d="M5.5935 16.6186C5.29955 16.1087 4.86184 15.6967 4.33507 15.4342C3.8083 15.1717 3.21584 15.0703 2.63175 15.1426C2.47199 14.4585 2.39072 13.7585 2.3895 13.0561C2.39177 11.3097 2.88181 9.59863 3.80437 8.1158C4.72693 6.63296 6.04534 5.4373 7.611 4.66357C7.41405 4.18654 7.30089 3.67909 7.2765 3.16357C5.3751 4.02606 3.76194 5.41731 2.62945 7.17136C1.49697 8.9254 0.892965 10.9682 0.889498 13.0561C0.890669 13.9522 1.00405 14.8446 1.227 15.7126C0.771138 16.0453 0.418778 16.5003 0.210667 17.0249C0.0025567 17.5495 -0.052802 18.1223 0.0509932 18.6771C0.154788 19.2318 0.413497 19.7458 0.7972 20.1597C1.1809 20.5736 1.67392 20.8704 2.21925 21.0158C2.79233 21.1694 3.3981 21.1496 3.95994 20.959C4.52179 20.7683 5.01448 20.4153 5.37573 19.9447C5.73697 19.474 5.95055 18.9068 5.98944 18.3148C6.02834 17.7227 5.89006 17.1325 5.5935 16.6186Z" fill="#6B6363"/>
<path id="Vector_2" d="M23.4308 17.3423C23.3171 16.9146 23.1102 16.5174 22.8249 16.1791C22.5396 15.8408 22.183 15.5698 21.7807 15.3855C21.3783 15.2013 20.9402 15.1083 20.4977 15.1133C20.0552 15.1183 19.6192 15.2211 19.2211 15.4144C18.8231 15.6077 18.4727 15.8867 18.1951 16.2313C17.9175 16.576 17.7196 16.9778 17.6156 17.4079C17.5116 17.8381 17.504 18.2859 17.5934 18.7193C17.6828 19.1527 17.867 19.561 18.1328 19.9148C16.5949 21.3539 14.6152 22.2303 12.5159 22.4012C10.4166 22.5721 8.32126 22.0275 6.57082 20.8561C6.2538 21.2606 5.86942 21.6074 5.43457 21.8813C7.4982 23.3738 10.0227 24.0893 12.5625 23.9018C15.1024 23.7142 17.4943 22.6355 19.3163 20.8561C19.6972 21.0286 20.1102 21.1186 20.5283 21.1201C20.989 21.1209 21.4437 21.0155 21.8571 20.8122C22.2706 20.6089 22.6316 20.3132 22.9123 19.9478C23.193 19.5825 23.3858 19.1574 23.4757 18.7056C23.5656 18.2538 23.5503 17.7873 23.4308 17.3423Z" fill="#6B6363"/>
<path id="Vector_3" d="M14.732 2.60257C14.6438 1.88738 14.2982 1.22877 13.7598 0.749814C13.2214 0.270861 12.527 0.0043385 11.8064 5.25054e-05C11.0858 -0.00423349 10.3883 0.25401 9.84422 0.726525C9.30016 1.19904 8.94676 1.85349 8.85007 2.56758C8.75337 3.28168 8.92 4.00654 9.31882 4.60673C9.71763 5.20692 10.3213 5.64135 11.0171 5.82885C11.7129 6.01636 12.4532 5.94409 13.0996 5.62557C13.746 5.30704 14.2542 4.76405 14.5295 4.09807C16.4426 4.69106 18.116 5.88022 19.3053 7.49184C20.4946 9.10347 21.1375 11.0531 21.14 13.0561C21.14 13.2586 21.122 13.4558 21.11 13.6561C21.6253 13.7262 22.1246 13.8848 22.586 14.1248C22.6205 13.7731 22.64 13.4176 22.64 13.0568C22.6361 10.6918 21.8623 8.39241 20.4355 6.50626C19.0088 4.62012 17.0067 3.24981 14.732 2.60257Z" fill="#6B6363"/>
</g>
</svg>
