<svg width="23" height="22" viewBox="0 0 23 22" fill="none" xmlns="http://www.w3.org/2000/svg">
<g id="Group">
<g id="Group_2">
<path id="Vector" d="M8.76172 6.62012V13.1902L13.9093 16.3658L14.7855 15.0518L10.4046 12.4237V6.62012H8.76172Z" fill="black"/>
<path id="Vector_2" d="M17.4362 10.9999C17.491 11.3613 17.5238 11.7226 17.5238 12.0949C17.5238 16.3655 14.1286 19.7601 9.85714 19.7601C5.58571 19.7601 2.19048 16.3655 2.19048 12.0949C2.19048 7.82435 5.58571 4.42979 9.85714 4.42979C10.6238 4.42979 11.3576 4.53929 12.0476 4.74734V2.4916C11.3467 2.32735 10.6129 2.23975 9.85714 2.23975C4.38095 2.23975 0 6.61982 0 12.0949C0 17.57 4.38095 21.9501 9.85714 21.9501C15.3333 21.9501 19.7143 17.57 19.7143 12.0949C19.7143 11.7226 19.6924 11.3613 19.6486 10.9999H17.4362Z" fill="black"/>
<path id="Vector_3" d="M19.7145 3.33486V0.0498047H17.524V3.33486H14.2383V5.5249H17.524V8.80996H19.7145V5.5249H23.0002V3.33486H19.7145Z" fill="black"/>
</g>
</g>
</svg>
