<svg width="23" height="24" viewBox="0 0 23 24" fill="none" xmlns="http://www.w3.org/2000/svg">
<g id="Group">
<path id="Vector" d="M3.55111 18.1138H0.517345C0.238095 18.1138 0.0117188 18.3402 0.0117188 18.6195V22.6654C0.0117188 22.9447 0.238095 23.1711 0.517345 23.1711H3.55111C3.83035 23.1711 4.05673 22.9447 4.05673 22.6654V18.6195C4.05673 18.3402 3.83035 18.1138 3.55111 18.1138Z" fill="#6B6363"/>
<path id="Vector_2" d="M9.61946 11.0334H6.5857C6.30645 11.0334 6.08008 11.2599 6.08008 11.5392V22.6654C6.08008 22.9447 6.30645 23.1711 6.5857 23.1711H9.61946C9.89871 23.1711 10.1251 22.9447 10.1251 22.6654V11.5392C10.1251 11.2599 9.89871 11.0334 9.61946 11.0334Z" fill="#6B6363"/>
<path id="Vector_3" d="M15.6878 18.1138H12.6541C12.3748 18.1138 12.1484 18.3402 12.1484 18.6195V22.6654C12.1484 22.9447 12.3748 23.1711 12.6541 23.1711H15.6878C15.9671 23.1711 16.1935 22.9447 16.1935 22.6654V18.6195C16.1935 18.3402 15.9671 18.1138 15.6878 18.1138Z" fill="#6B6363"/>
<path id="Vector_4" d="M21.7542 11.0334H18.7205C18.4412 11.0334 18.2148 11.2599 18.2148 11.5392V22.6654C18.2148 22.9447 18.4412 23.1711 18.7205 23.1711H21.7542C22.0335 23.1711 22.2599 22.9447 22.2599 22.6654V11.5392C22.2599 11.2599 22.0335 11.0334 21.7542 11.0334Z" fill="#6B6363"/>
<path id="Vector_5" d="M20.5338 1.21508L14.17 7.58029L8.81741 2.22656C8.62777 2.03694 8.3706 1.93041 8.10245 1.93041C7.83431 1.93041 7.57714 2.03694 7.3875 2.22656L0.308724 9.30687C0.212139 9.40018 0.135099 9.51179 0.0821004 9.63519C0.0291016 9.7586 0.00120498 9.89132 3.81816e-05 10.0256C-0.00112862 10.1599 0.0244578 10.2931 0.0753046 10.4174C0.126151 10.5417 0.20124 10.6547 0.296189 10.7496C0.391139 10.8446 0.504047 10.9197 0.628326 10.9706C0.752606 11.0214 0.885767 11.047 1.02004 11.0458C1.15431 11.0447 1.28701 11.0168 1.41039 10.9638C1.53376 10.9108 1.64535 10.8337 1.73864 10.7371L8.10245 4.37189L13.455 9.72562C13.6447 9.91524 13.9018 10.0218 14.17 10.0218C14.4381 10.0218 14.6953 9.91524 14.8849 9.72562L21.9637 2.64531C22.1479 2.45454 22.2498 2.19904 22.2475 1.93384C22.2452 1.66863 22.1389 1.41494 21.9514 1.22741C21.7639 1.03987 21.5103 0.933495 21.2451 0.931191C20.98 0.928886 20.7245 1.03084 20.5338 1.21508Z" fill="#6B6363"/>
</g>
</svg>
