<svg width="23" height="23" viewBox="0 0 23 23" fill="none" xmlns="http://www.w3.org/2000/svg">
<path id="Vector" d="M21.7895 5.73111V2.94444C21.7895 1.6 20.7 0.5 19.3684 0.5H2.42105C1.77895 0.5 1.16315 0.757539 0.70911 1.21596C0.255074 1.67438 0 2.29614 0 2.94444V20.0556C0 20.7039 0.255074 21.3256 0.70911 21.784C1.16315 22.2425 1.77895 22.5 2.42105 22.5H19.3684C20.7 22.5 21.7895 21.4 21.7895 20.0556V17.2689C22.1554 17.0556 22.4596 16.7493 22.672 16.3805C22.8844 16.0117 22.9974 15.5933 23 15.1667V7.83333C22.9974 7.40674 22.8844 6.98826 22.672 6.61946C22.4596 6.25066 22.1554 5.9444 21.7895 5.73111ZM20.5789 7.83333V15.1667H12.1053V7.83333H20.5789ZM2.42105 20.0556V2.94444H19.3684V5.38889H12.1053C10.7737 5.38889 9.68421 6.48889 9.68421 7.83333V15.1667C9.68421 16.5111 10.7737 17.6111 12.1053 17.6111H19.3684V20.0556H2.42105Z" fill="#6B6363"/>
</svg>
